<svg version="1.2" xmlns="http://www.w3.org/2000/svg" viewBox="0 0 24 24" width="24" height="24">
	<title>Screenshot-2025-06-24-at-22</title>
	<style>
		.s0 { fill: #ffffff } 
	</style>
	<g>
		<path class="s0" d="m11.6 0c-1.6 0.2-3 1.3-3.4 2.7-0.6 1.7 0 3.4 1.4 4.5 0.2 0.2 0.7 0.4 1 0.5l0.2 0.1v7.1 7.1h-0.1c0 0-0.2 0-0.3-0.1-0.4 0-1.1-0.1-1.5-0.2-1.5-0.4-2.7-1.1-3.8-2.1-0.3-0.2-0.8-0.8-0.9-1l-0.1-0.1 0.5-0.3c0.3-0.2 0.6-0.3 0.6-0.3 0 0-3.1-0.9-3.2-0.9q0-0.1-0.5 1.5c-0.2 0.9-0.5 1.6-0.4 1.6 0 0 0.2-0.1 0.6-0.3 0.3-0.2 0.6-0.3 0.6-0.3 0 0 0.1 0.1 0.2 0.2 0.7 0.9 1.6 1.8 2.6 2.4q2.1 1.4 4.7 1.8c1.3 0.2 2.9 0.1 4.3-0.1 2.9-0.4 5.6-1.9 7.3-4l0.3-0.4 0.6 0.4c0.3 0.2 0.6 0.3 0.6 0.3 0 0-0.5-1.7-0.9-3.1q0 0 0 0c-0.1 0-3.2 0.8-3.2 0.9 0 0 0.2 0.1 0.5 0.3 0.3 0.1 0.6 0.3 0.6 0.3 0 0-0.5 0.5-0.8 0.9-1.3 1.2-3 2-4.9 2.4-0.4 0.1-1.2 0.2-1.3 0.2 0 0 0-0.9 0-7v-7.1l0.2-0.1c0.7-0.1 1.3-0.5 1.8-1 1.4-1.4 1.6-3.4 0.5-5-0.8-1.2-2.3-1.9-3.8-1.8zm0.9 2c1.6 0.4 2.1 2.3 0.9 3.4q-0.5 0.6-1.4 0.6c-0.6 0-1-0.2-1.4-0.6-0.3-0.3-0.5-0.5-0.6-0.9-0.3-1.1 0.4-2.2 1.5-2.5 0.2 0 0.7 0 1 0z"/>
	</g>
</svg>